<svg width="15" height="15" viewBox="0 0 15 15" fill="none" xmlns="http://www.w3.org/2000/svg">
<path d="M10.625 9.52837V13.8231C10.625 13.9956 10.4851 14.1356 10.3125 14.1356C10.2559 14.1356 10.2003 14.1202 10.1517 14.0911L7.5 12.5L4.84828 14.0911C4.70029 14.1798 4.50833 14.1318 4.41953 13.9839C4.39039 13.9352 4.375 13.8797 4.375 13.8231V9.52837C3.23192 8.61206 2.5 7.204 2.5 5.625C2.5 2.86357 4.73857 0.625 7.5 0.625C10.2614 0.625 12.5 2.86357 12.5 5.625C12.5 7.204 11.7681 8.61206 10.625 9.52837ZM7.5 9.375C9.57106 9.375 11.25 7.69606 11.25 5.625C11.25 3.55393 9.57106 1.875 7.5 1.875C5.42893 1.875 3.75 3.55393 3.75 5.625C3.75 7.69606 5.42893 9.375 7.5 9.375ZM7.5 8.125C6.11929 8.125 5 7.00569 5 5.625C5 4.24429 6.11929 3.125 7.5 3.125C8.88069 3.125 10 4.24429 10 5.625C10 7.00569 8.88069 8.125 7.5 8.125Z" fill="#00707E"/>
</svg>
