<svg width="19" height="21" viewBox="0 0 19 21" fill="none" xmlns="http://www.w3.org/2000/svg">
<rect x="0.393555" width="18.2446" height="21" rx="5.625" fill="#D9EFF2"/>
<path d="M5.36166 4.37501H13.6694C13.9971 4.37501 14.2628 4.64069 14.2628 4.96842V16.3282C14.2628 16.4921 14.1299 16.625 13.9661 16.625C13.9104 16.625 13.8557 16.6092 13.8085 16.5796L9.51553 13.8881L5.22256 16.5796C5.08372 16.6667 4.90062 16.6247 4.81357 16.4859C4.78396 16.4386 4.76825 16.384 4.76825 16.3282V4.96842C4.76825 4.64069 5.03393 4.37501 5.36166 4.37501ZM13.076 5.56183H5.95507V14.7196L9.51553 12.4873L13.076 14.7196V5.56183Z" fill="#00707E"/>
<path d="M5.36166 4.37501H13.6694C13.9971 4.37501 14.2628 4.64069 14.2628 4.96842V16.3282C14.2628 16.4921 14.1299 16.625 13.9661 16.625C13.9104 16.625 13.8557 16.6092 13.8085 16.5796L9.51553 13.8881L5.22256 16.5796C5.08372 16.6667 4.90062 16.6247 4.81357 16.4859C4.78396 16.4386 4.76825 16.384 4.76825 16.3282V4.96842C4.76825 4.64069 5.03393 4.37501 5.36166 4.37501Z" fill="#00707E"/>
</svg>
